# xmcd CD database file
#
# Track frame offsets:
#	150
#	3357
#	22710
#	41857
#	58210
#	62402
#	80237
#	100400
#	118320
#	138842
#	163267
#
# Disc length: 2442 seconds
#
# Revision: 2
# Processed by: cddbd v1.5.2PL0 Copyright (c) Steve Scherf et al.
# Submitted via: CDex 1.70beta2
#
DISCID=9409880b
DTITLE=양파 - Second Album
DYEAR=1998
DGENRE=Blues
TTITLE0=Intro
TTITLE1=Sweet 19 Funky (Blue Birthday)
TTITLE2=알고 싶어요 !
TTITLE3=소유
TTITLE4=Neverland
TTITLE5=믿지 못할 세계
TTITLE6=Stay With Me
TTITLE7=That's OK !
TTITLE8=다시 우리
TTITLE9=소녀가... 소년에게...
TTITLE10=Overlap
EXTD=YEAR: 1998
EXTT0=
EXTT1=
EXTT2=
EXTT3=
EXTT4=
EXTT5=
EXTT6=
EXTT7=
EXTT8=
EXTT9=
EXTT10=
PLAYORDER=
